<mxfile host="app.diagrams.net" modified="2022-01-08T10:41:53.493Z" agent="5.0 (Macintosh; Intel Mac OS X 10_15_7) AppleWebKit/537.36 (KHTML, like Gecko) Chrome/96.0.4664.110 Safari/537.36" etag="TELS-CCRr4DAGxfcl0ru" version="16.0.0" type="github">
  <diagram id="70DKCi9DjoW5m2XGWD_O" name="Page-1">
    <mxGraphModel dx="946" dy="557" grid="1" gridSize="10" guides="1" tooltips="1" connect="1" arrows="1" fold="1" page="1" pageScale="1" pageWidth="827" pageHeight="1169" math="0" shadow="0">
      <root>
        <mxCell id="0" />
        <mxCell id="1" parent="0" />
        <mxCell id="tc--EFgO68QH__nJiyXp-1" value="1" style="rounded=0;whiteSpace=wrap;html=1;fontSize=20;strokeWidth=2;" vertex="1" parent="1">
          <mxGeometry x="60" y="130" width="120" height="60" as="geometry" />
        </mxCell>
        <mxCell id="tc--EFgO68QH__nJiyXp-2" value="key-1" style="rounded=0;whiteSpace=wrap;html=1;fontSize=20;strokeWidth=2;" vertex="1" parent="1">
          <mxGeometry x="180" y="130" width="80" height="60" as="geometry" />
        </mxCell>
        <mxCell id="tc--EFgO68QH__nJiyXp-4" value="1" style="rounded=0;whiteSpace=wrap;html=1;fontSize=20;strokeWidth=2;" vertex="1" parent="1">
          <mxGeometry x="60" y="130" width="40" height="60" as="geometry" />
        </mxCell>
        <mxCell id="tc--EFgO68QH__nJiyXp-5" value="0" style="rounded=0;whiteSpace=wrap;html=1;fontSize=20;strokeWidth=2;" vertex="1" parent="1">
          <mxGeometry x="100" y="130" width="40" height="60" as="geometry" />
        </mxCell>
        <mxCell id="tc--EFgO68QH__nJiyXp-6" value="1" style="rounded=0;whiteSpace=wrap;html=1;fontSize=20;strokeWidth=2;" vertex="1" parent="1">
          <mxGeometry x="20" y="130" width="40" height="60" as="geometry" />
        </mxCell>
        <mxCell id="tc--EFgO68QH__nJiyXp-8" value="1" style="rounded=0;whiteSpace=wrap;html=1;fontSize=20;strokeWidth=2;" vertex="1" parent="1">
          <mxGeometry x="140" y="130" width="40" height="60" as="geometry" />
        </mxCell>
        <mxCell id="tc--EFgO68QH__nJiyXp-9" value="key-2" style="rounded=0;whiteSpace=wrap;html=1;fontSize=20;strokeWidth=2;" vertex="1" parent="1">
          <mxGeometry x="260" y="130" width="80" height="60" as="geometry" />
        </mxCell>
        <mxCell id="tc--EFgO68QH__nJiyXp-10" value="" style="rounded=0;whiteSpace=wrap;html=1;fontSize=20;strokeWidth=2;" vertex="1" parent="1">
          <mxGeometry x="340" y="130" width="80" height="60" as="geometry" />
        </mxCell>
        <mxCell id="tc--EFgO68QH__nJiyXp-11" value="key-3" style="rounded=0;whiteSpace=wrap;html=1;fontSize=20;strokeWidth=2;" vertex="1" parent="1">
          <mxGeometry x="420" y="130" width="80" height="60" as="geometry" />
        </mxCell>
        <mxCell id="tc--EFgO68QH__nJiyXp-12" value="" style="endArrow=classic;html=1;rounded=0;fontSize=20;strokeWidth=2;" edge="1" parent="1">
          <mxGeometry width="50" height="50" relative="1" as="geometry">
            <mxPoint x="450" y="30" as="sourcePoint" />
            <mxPoint x="450" y="120" as="targetPoint" />
          </mxGeometry>
        </mxCell>
        <mxCell id="tc--EFgO68QH__nJiyXp-13" value="Update key-3-&amp;gt; key-4" style="text;html=1;align=center;verticalAlign=middle;resizable=0;points=[];autosize=1;strokeColor=none;fillColor=none;fontSize=20;strokeWidth=2;" vertex="1" parent="1">
          <mxGeometry x="229" y="60" width="210" height="30" as="geometry" />
        </mxCell>
        <mxCell id="tc--EFgO68QH__nJiyXp-14" value="1" style="rounded=0;whiteSpace=wrap;html=1;fontSize=20;strokeWidth=2;" vertex="1" parent="1">
          <mxGeometry x="60" y="250" width="120" height="60" as="geometry" />
        </mxCell>
        <mxCell id="tc--EFgO68QH__nJiyXp-15" value="key-1" style="rounded=0;whiteSpace=wrap;html=1;fontSize=20;strokeWidth=2;" vertex="1" parent="1">
          <mxGeometry x="180" y="250" width="80" height="60" as="geometry" />
        </mxCell>
        <mxCell id="tc--EFgO68QH__nJiyXp-16" value="1" style="rounded=0;whiteSpace=wrap;html=1;fontSize=20;strokeWidth=2;" vertex="1" parent="1">
          <mxGeometry x="60" y="250" width="40" height="60" as="geometry" />
        </mxCell>
        <mxCell id="tc--EFgO68QH__nJiyXp-17" value="0" style="rounded=0;whiteSpace=wrap;html=1;fontSize=20;strokeWidth=2;" vertex="1" parent="1">
          <mxGeometry x="100" y="250" width="40" height="60" as="geometry" />
        </mxCell>
        <mxCell id="tc--EFgO68QH__nJiyXp-18" value="1" style="rounded=0;whiteSpace=wrap;html=1;fontSize=20;strokeWidth=2;" vertex="1" parent="1">
          <mxGeometry x="20" y="250" width="40" height="60" as="geometry" />
        </mxCell>
        <mxCell id="tc--EFgO68QH__nJiyXp-19" value="1" style="rounded=0;whiteSpace=wrap;html=1;fontSize=20;strokeWidth=2;" vertex="1" parent="1">
          <mxGeometry x="140" y="250" width="40" height="60" as="geometry" />
        </mxCell>
        <mxCell id="tc--EFgO68QH__nJiyXp-20" value="key-2" style="rounded=0;whiteSpace=wrap;html=1;fontSize=20;strokeWidth=2;" vertex="1" parent="1">
          <mxGeometry x="260" y="250" width="80" height="60" as="geometry" />
        </mxCell>
        <mxCell id="tc--EFgO68QH__nJiyXp-21" value="key-4" style="rounded=0;whiteSpace=wrap;html=1;fontSize=20;strokeWidth=2;" vertex="1" parent="1">
          <mxGeometry x="340" y="250" width="80" height="60" as="geometry" />
        </mxCell>
        <mxCell id="tc--EFgO68QH__nJiyXp-22" value="key-3" style="rounded=0;whiteSpace=wrap;html=1;fontSize=20;strokeWidth=2;" vertex="1" parent="1">
          <mxGeometry x="420" y="250" width="80" height="60" as="geometry" />
        </mxCell>
        <mxCell id="tc--EFgO68QH__nJiyXp-23" value="1" style="rounded=0;whiteSpace=wrap;html=1;fontSize=20;strokeWidth=2;" vertex="1" parent="1">
          <mxGeometry x="60" y="370" width="120" height="60" as="geometry" />
        </mxCell>
        <mxCell id="tc--EFgO68QH__nJiyXp-24" value="key-1" style="rounded=0;whiteSpace=wrap;html=1;fontSize=20;strokeWidth=2;" vertex="1" parent="1">
          <mxGeometry x="180" y="370" width="80" height="60" as="geometry" />
        </mxCell>
        <mxCell id="tc--EFgO68QH__nJiyXp-25" value="1" style="rounded=0;whiteSpace=wrap;html=1;fontSize=20;strokeWidth=2;" vertex="1" parent="1">
          <mxGeometry x="60" y="370" width="40" height="60" as="geometry" />
        </mxCell>
        <mxCell id="tc--EFgO68QH__nJiyXp-26" value="1" style="rounded=0;whiteSpace=wrap;html=1;fontSize=20;strokeWidth=2;" vertex="1" parent="1">
          <mxGeometry x="100" y="370" width="40" height="60" as="geometry" />
        </mxCell>
        <mxCell id="tc--EFgO68QH__nJiyXp-27" value="1" style="rounded=0;whiteSpace=wrap;html=1;fontSize=20;strokeWidth=2;" vertex="1" parent="1">
          <mxGeometry x="20" y="370" width="40" height="60" as="geometry" />
        </mxCell>
        <mxCell id="tc--EFgO68QH__nJiyXp-28" value="0" style="rounded=0;whiteSpace=wrap;html=1;fontSize=20;strokeWidth=2;" vertex="1" parent="1">
          <mxGeometry x="140" y="370" width="40" height="60" as="geometry" />
        </mxCell>
        <mxCell id="tc--EFgO68QH__nJiyXp-29" value="key-2" style="rounded=0;whiteSpace=wrap;html=1;fontSize=20;strokeWidth=2;" vertex="1" parent="1">
          <mxGeometry x="260" y="370" width="80" height="60" as="geometry" />
        </mxCell>
        <mxCell id="tc--EFgO68QH__nJiyXp-30" value="key-4" style="rounded=0;whiteSpace=wrap;html=1;fontSize=20;strokeWidth=2;" vertex="1" parent="1">
          <mxGeometry x="340" y="370" width="80" height="60" as="geometry" />
        </mxCell>
        <mxCell id="tc--EFgO68QH__nJiyXp-31" value="key-3" style="rounded=0;whiteSpace=wrap;html=1;fontSize=20;strokeWidth=2;" vertex="1" parent="1">
          <mxGeometry x="420" y="370" width="80" height="60" as="geometry" />
        </mxCell>
        <mxCell id="tc--EFgO68QH__nJiyXp-32" value="" style="shape=flexArrow;endArrow=classic;html=1;rounded=0;fontSize=20;strokeWidth=2;" edge="1" parent="1">
          <mxGeometry width="50" height="50" relative="1" as="geometry">
            <mxPoint x="240" y="200" as="sourcePoint" />
            <mxPoint x="240" y="240" as="targetPoint" />
          </mxGeometry>
        </mxCell>
        <mxCell id="tc--EFgO68QH__nJiyXp-42" value="" style="shape=flexArrow;endArrow=classic;html=1;rounded=0;fontSize=20;strokeWidth=2;" edge="1" parent="1">
          <mxGeometry width="50" height="50" relative="1" as="geometry">
            <mxPoint x="240" y="320" as="sourcePoint" />
            <mxPoint x="240" y="360" as="targetPoint" />
          </mxGeometry>
        </mxCell>
        <mxCell id="tc--EFgO68QH__nJiyXp-43" value="1" style="rounded=0;whiteSpace=wrap;html=1;fontSize=20;strokeWidth=2;" vertex="1" parent="1">
          <mxGeometry x="570" y="130" width="120" height="60" as="geometry" />
        </mxCell>
        <mxCell id="tc--EFgO68QH__nJiyXp-44" value="key-1" style="rounded=0;whiteSpace=wrap;html=1;fontSize=20;strokeWidth=2;" vertex="1" parent="1">
          <mxGeometry x="690" y="130" width="80" height="60" as="geometry" />
        </mxCell>
        <mxCell id="tc--EFgO68QH__nJiyXp-45" value="1" style="rounded=0;whiteSpace=wrap;html=1;fontSize=20;strokeWidth=2;" vertex="1" parent="1">
          <mxGeometry x="570" y="130" width="40" height="60" as="geometry" />
        </mxCell>
        <mxCell id="tc--EFgO68QH__nJiyXp-46" value="1" style="rounded=0;whiteSpace=wrap;html=1;fontSize=20;strokeWidth=2;" vertex="1" parent="1">
          <mxGeometry x="610" y="130" width="40" height="60" as="geometry" />
        </mxCell>
        <mxCell id="tc--EFgO68QH__nJiyXp-47" value="1" style="rounded=0;whiteSpace=wrap;html=1;fontSize=20;strokeWidth=2;" vertex="1" parent="1">
          <mxGeometry x="530" y="130" width="40" height="60" as="geometry" />
        </mxCell>
        <mxCell id="tc--EFgO68QH__nJiyXp-48" value="1" style="rounded=0;whiteSpace=wrap;html=1;fontSize=20;strokeWidth=2;" vertex="1" parent="1">
          <mxGeometry x="650" y="130" width="40" height="60" as="geometry" />
        </mxCell>
        <mxCell id="tc--EFgO68QH__nJiyXp-49" value="key-2" style="rounded=0;whiteSpace=wrap;html=1;fontSize=20;strokeWidth=2;" vertex="1" parent="1">
          <mxGeometry x="770" y="130" width="80" height="60" as="geometry" />
        </mxCell>
        <mxCell id="tc--EFgO68QH__nJiyXp-50" value="key-5" style="rounded=0;whiteSpace=wrap;html=1;fontSize=20;strokeWidth=2;" vertex="1" parent="1">
          <mxGeometry x="850" y="130" width="80" height="60" as="geometry" />
        </mxCell>
        <mxCell id="tc--EFgO68QH__nJiyXp-51" value="key-3" style="rounded=0;whiteSpace=wrap;html=1;fontSize=20;strokeWidth=2;" vertex="1" parent="1">
          <mxGeometry x="930" y="130" width="80" height="60" as="geometry" />
        </mxCell>
        <mxCell id="tc--EFgO68QH__nJiyXp-52" value="" style="endArrow=classic;html=1;rounded=0;fontSize=20;strokeWidth=2;" edge="1" parent="1">
          <mxGeometry width="50" height="50" relative="1" as="geometry">
            <mxPoint x="960" y="30" as="sourcePoint" />
            <mxPoint x="960" y="120" as="targetPoint" />
          </mxGeometry>
        </mxCell>
        <mxCell id="tc--EFgO68QH__nJiyXp-53" value="Update key-3-&amp;gt; key-4" style="text;html=1;align=center;verticalAlign=middle;resizable=0;points=[];autosize=1;strokeColor=none;fillColor=none;fontSize=20;strokeWidth=2;" vertex="1" parent="1">
          <mxGeometry x="739" y="60" width="210" height="30" as="geometry" />
        </mxCell>
        <mxCell id="tc--EFgO68QH__nJiyXp-54" value="1" style="rounded=0;whiteSpace=wrap;html=1;fontSize=20;strokeWidth=2;" vertex="1" parent="1">
          <mxGeometry x="570" y="250" width="120" height="60" as="geometry" />
        </mxCell>
        <mxCell id="tc--EFgO68QH__nJiyXp-55" value="key-1" style="rounded=0;whiteSpace=wrap;html=1;fontSize=20;strokeWidth=2;" vertex="1" parent="1">
          <mxGeometry x="690" y="250" width="80" height="60" as="geometry" />
        </mxCell>
        <mxCell id="tc--EFgO68QH__nJiyXp-56" value="1" style="rounded=0;whiteSpace=wrap;html=1;fontSize=20;strokeWidth=2;" vertex="1" parent="1">
          <mxGeometry x="570" y="250" width="40" height="60" as="geometry" />
        </mxCell>
        <mxCell id="tc--EFgO68QH__nJiyXp-57" value="1" style="rounded=0;whiteSpace=wrap;html=1;fontSize=20;strokeWidth=2;" vertex="1" parent="1">
          <mxGeometry x="610" y="250" width="40" height="60" as="geometry" />
        </mxCell>
        <mxCell id="tc--EFgO68QH__nJiyXp-58" value="1" style="rounded=0;whiteSpace=wrap;html=1;fontSize=20;strokeWidth=2;" vertex="1" parent="1">
          <mxGeometry x="530" y="250" width="40" height="60" as="geometry" />
        </mxCell>
        <mxCell id="tc--EFgO68QH__nJiyXp-59" value="0" style="rounded=0;whiteSpace=wrap;html=1;fontSize=20;strokeWidth=2;" vertex="1" parent="1">
          <mxGeometry x="650" y="250" width="40" height="60" as="geometry" />
        </mxCell>
        <mxCell id="tc--EFgO68QH__nJiyXp-60" value="key-2" style="rounded=0;whiteSpace=wrap;html=1;fontSize=20;strokeWidth=2;" vertex="1" parent="1">
          <mxGeometry x="770" y="250" width="80" height="60" as="geometry" />
        </mxCell>
        <mxCell id="tc--EFgO68QH__nJiyXp-61" value="key-5" style="rounded=0;whiteSpace=wrap;html=1;fontSize=20;strokeWidth=2;" vertex="1" parent="1">
          <mxGeometry x="850" y="250" width="80" height="60" as="geometry" />
        </mxCell>
        <mxCell id="tc--EFgO68QH__nJiyXp-62" value="key-3" style="rounded=0;whiteSpace=wrap;html=1;fontSize=20;strokeWidth=2;" vertex="1" parent="1">
          <mxGeometry x="930" y="250" width="80" height="60" as="geometry" />
        </mxCell>
        <mxCell id="tc--EFgO68QH__nJiyXp-63" value="1" style="rounded=0;whiteSpace=wrap;html=1;fontSize=20;strokeWidth=2;" vertex="1" parent="1">
          <mxGeometry x="570" y="370" width="120" height="60" as="geometry" />
        </mxCell>
        <mxCell id="tc--EFgO68QH__nJiyXp-64" value="key-1" style="rounded=0;whiteSpace=wrap;html=1;fontSize=20;strokeWidth=2;" vertex="1" parent="1">
          <mxGeometry x="690" y="370" width="80" height="60" as="geometry" />
        </mxCell>
        <mxCell id="tc--EFgO68QH__nJiyXp-65" value="1" style="rounded=0;whiteSpace=wrap;html=1;fontSize=20;strokeWidth=2;" vertex="1" parent="1">
          <mxGeometry x="570" y="370" width="40" height="60" as="geometry" />
        </mxCell>
        <mxCell id="tc--EFgO68QH__nJiyXp-66" value="1" style="rounded=0;whiteSpace=wrap;html=1;fontSize=20;strokeWidth=2;" vertex="1" parent="1">
          <mxGeometry x="610" y="370" width="40" height="60" as="geometry" />
        </mxCell>
        <mxCell id="tc--EFgO68QH__nJiyXp-67" value="1" style="rounded=0;whiteSpace=wrap;html=1;fontSize=20;strokeWidth=2;" vertex="1" parent="1">
          <mxGeometry x="530" y="370" width="40" height="60" as="geometry" />
        </mxCell>
        <mxCell id="tc--EFgO68QH__nJiyXp-68" value="1" style="rounded=0;whiteSpace=wrap;html=1;fontSize=20;strokeWidth=2;" vertex="1" parent="1">
          <mxGeometry x="650" y="370" width="40" height="60" as="geometry" />
        </mxCell>
        <mxCell id="tc--EFgO68QH__nJiyXp-69" value="key-2" style="rounded=0;whiteSpace=wrap;html=1;fontSize=20;strokeWidth=2;" vertex="1" parent="1">
          <mxGeometry x="770" y="370" width="80" height="60" as="geometry" />
        </mxCell>
        <mxCell id="tc--EFgO68QH__nJiyXp-70" value="key-4" style="rounded=0;whiteSpace=wrap;html=1;fontSize=20;strokeWidth=2;" vertex="1" parent="1">
          <mxGeometry x="850" y="370" width="80" height="60" as="geometry" />
        </mxCell>
        <mxCell id="tc--EFgO68QH__nJiyXp-71" value="key-3" style="rounded=0;whiteSpace=wrap;html=1;fontSize=20;strokeWidth=2;" vertex="1" parent="1">
          <mxGeometry x="930" y="370" width="80" height="60" as="geometry" />
        </mxCell>
        <mxCell id="tc--EFgO68QH__nJiyXp-72" value="" style="shape=flexArrow;endArrow=classic;html=1;rounded=0;fontSize=20;strokeWidth=2;" edge="1" parent="1">
          <mxGeometry width="50" height="50" relative="1" as="geometry">
            <mxPoint x="750" y="200" as="sourcePoint" />
            <mxPoint x="750" y="240" as="targetPoint" />
          </mxGeometry>
        </mxCell>
        <mxCell id="tc--EFgO68QH__nJiyXp-73" value="" style="shape=flexArrow;endArrow=classic;html=1;rounded=0;fontSize=20;strokeWidth=2;" edge="1" parent="1">
          <mxGeometry width="50" height="50" relative="1" as="geometry">
            <mxPoint x="750" y="320" as="sourcePoint" />
            <mxPoint x="750" y="360" as="targetPoint" />
          </mxGeometry>
        </mxCell>
        <mxCell id="tc--EFgO68QH__nJiyXp-78" value="" style="endArrow=none;dashed=1;html=1;rounded=0;fontSize=20;strokeWidth=2;" edge="1" parent="1">
          <mxGeometry width="50" height="50" relative="1" as="geometry">
            <mxPoint x="600" y="330" as="sourcePoint" />
            <mxPoint x="940" y="330" as="targetPoint" />
          </mxGeometry>
        </mxCell>
        <mxCell id="tc--EFgO68QH__nJiyXp-147" value="1" style="rounded=0;whiteSpace=wrap;html=1;fontSize=20;strokeWidth=2;" vertex="1" parent="1">
          <mxGeometry x="1080" y="130" width="120" height="60" as="geometry" />
        </mxCell>
        <mxCell id="tc--EFgO68QH__nJiyXp-148" value="1" style="rounded=0;whiteSpace=wrap;html=1;fontSize=20;strokeWidth=2;" vertex="1" parent="1">
          <mxGeometry x="1080" y="130" width="40" height="60" as="geometry" />
        </mxCell>
        <mxCell id="tc--EFgO68QH__nJiyXp-149" value="1" style="rounded=0;whiteSpace=wrap;html=1;fontSize=20;strokeWidth=2;" vertex="1" parent="1">
          <mxGeometry x="1120" y="130" width="40" height="60" as="geometry" />
        </mxCell>
        <mxCell id="tc--EFgO68QH__nJiyXp-150" value="1" style="rounded=0;whiteSpace=wrap;html=1;fontSize=20;strokeWidth=2;" vertex="1" parent="1">
          <mxGeometry x="1040" y="130" width="40" height="60" as="geometry" />
        </mxCell>
        <mxCell id="tc--EFgO68QH__nJiyXp-151" value="1" style="rounded=0;whiteSpace=wrap;html=1;fontSize=20;strokeWidth=2;" vertex="1" parent="1">
          <mxGeometry x="1160" y="130" width="40" height="60" as="geometry" />
        </mxCell>
        <mxCell id="tc--EFgO68QH__nJiyXp-152" value="1" style="rounded=0;whiteSpace=wrap;html=1;fontSize=20;strokeWidth=2;" vertex="1" parent="1">
          <mxGeometry x="1240" y="130" width="120" height="60" as="geometry" />
        </mxCell>
        <mxCell id="tc--EFgO68QH__nJiyXp-153" value="0" style="rounded=0;whiteSpace=wrap;html=1;fontSize=20;strokeWidth=2;" vertex="1" parent="1">
          <mxGeometry x="1240" y="130" width="40" height="60" as="geometry" />
        </mxCell>
        <mxCell id="tc--EFgO68QH__nJiyXp-154" value="0" style="rounded=0;whiteSpace=wrap;html=1;fontSize=20;strokeWidth=2;" vertex="1" parent="1">
          <mxGeometry x="1280" y="130" width="40" height="60" as="geometry" />
        </mxCell>
        <mxCell id="tc--EFgO68QH__nJiyXp-155" value="0" style="rounded=0;whiteSpace=wrap;html=1;fontSize=20;strokeWidth=2;" vertex="1" parent="1">
          <mxGeometry x="1200" y="130" width="40" height="60" as="geometry" />
        </mxCell>
        <mxCell id="tc--EFgO68QH__nJiyXp-156" value="0" style="rounded=0;whiteSpace=wrap;html=1;fontSize=20;strokeWidth=2;" vertex="1" parent="1">
          <mxGeometry x="1320" y="130" width="40" height="60" as="geometry" />
        </mxCell>
        <mxCell id="tc--EFgO68QH__nJiyXp-157" value="" style="shape=curlyBracket;whiteSpace=wrap;html=1;rounded=1;flipH=1;fontSize=20;strokeWidth=2;rotation=-90;" vertex="1" parent="1">
          <mxGeometry x="1270" y="30" width="20" height="160" as="geometry" />
        </mxCell>
        <mxCell id="tc--EFgO68QH__nJiyXp-158" value="crash" style="text;html=1;align=center;verticalAlign=middle;resizable=0;points=[];autosize=1;strokeColor=none;fillColor=none;fontSize=20;" vertex="1" parent="1">
          <mxGeometry x="1250" y="65" width="60" height="30" as="geometry" />
        </mxCell>
        <mxCell id="tc--EFgO68QH__nJiyXp-159" value="1" style="rounded=0;whiteSpace=wrap;html=1;fontSize=20;strokeWidth=2;" vertex="1" parent="1">
          <mxGeometry x="1080" y="250" width="120" height="60" as="geometry" />
        </mxCell>
        <mxCell id="tc--EFgO68QH__nJiyXp-160" value="1" style="rounded=0;whiteSpace=wrap;html=1;fontSize=20;strokeWidth=2;" vertex="1" parent="1">
          <mxGeometry x="1080" y="250" width="40" height="60" as="geometry" />
        </mxCell>
        <mxCell id="tc--EFgO68QH__nJiyXp-161" value="1" style="rounded=0;whiteSpace=wrap;html=1;fontSize=20;strokeWidth=2;" vertex="1" parent="1">
          <mxGeometry x="1120" y="250" width="40" height="60" as="geometry" />
        </mxCell>
        <mxCell id="tc--EFgO68QH__nJiyXp-162" value="1" style="rounded=0;whiteSpace=wrap;html=1;fontSize=20;strokeWidth=2;" vertex="1" parent="1">
          <mxGeometry x="1040" y="250" width="40" height="60" as="geometry" />
        </mxCell>
        <mxCell id="tc--EFgO68QH__nJiyXp-163" value="0" style="rounded=0;whiteSpace=wrap;html=1;fontSize=20;strokeWidth=2;" vertex="1" parent="1">
          <mxGeometry x="1160" y="250" width="40" height="60" as="geometry" />
        </mxCell>
        <mxCell id="tc--EFgO68QH__nJiyXp-164" value="1" style="rounded=0;whiteSpace=wrap;html=1;fontSize=20;strokeWidth=2;" vertex="1" parent="1">
          <mxGeometry x="1240" y="250" width="120" height="60" as="geometry" />
        </mxCell>
        <mxCell id="tc--EFgO68QH__nJiyXp-165" value="0" style="rounded=0;whiteSpace=wrap;html=1;fontSize=20;strokeWidth=2;" vertex="1" parent="1">
          <mxGeometry x="1240" y="250" width="40" height="60" as="geometry" />
        </mxCell>
        <mxCell id="tc--EFgO68QH__nJiyXp-166" value="0" style="rounded=0;whiteSpace=wrap;html=1;fontSize=20;strokeWidth=2;" vertex="1" parent="1">
          <mxGeometry x="1280" y="250" width="40" height="60" as="geometry" />
        </mxCell>
        <mxCell id="tc--EFgO68QH__nJiyXp-167" value="0" style="rounded=0;whiteSpace=wrap;html=1;fontSize=20;strokeWidth=2;" vertex="1" parent="1">
          <mxGeometry x="1200" y="250" width="40" height="60" as="geometry" />
        </mxCell>
        <mxCell id="tc--EFgO68QH__nJiyXp-168" value="1" style="rounded=0;whiteSpace=wrap;html=1;fontSize=20;strokeWidth=2;" vertex="1" parent="1">
          <mxGeometry x="1320" y="250" width="40" height="60" as="geometry" />
        </mxCell>
        <mxCell id="tc--EFgO68QH__nJiyXp-170" value="1" style="rounded=0;whiteSpace=wrap;html=1;fontSize=20;strokeWidth=2;" vertex="1" parent="1">
          <mxGeometry x="1080" y="370" width="120" height="60" as="geometry" />
        </mxCell>
        <mxCell id="tc--EFgO68QH__nJiyXp-171" value="1" style="rounded=0;whiteSpace=wrap;html=1;fontSize=20;strokeWidth=2;" vertex="1" parent="1">
          <mxGeometry x="1080" y="370" width="40" height="60" as="geometry" />
        </mxCell>
        <mxCell id="tc--EFgO68QH__nJiyXp-172" value="1" style="rounded=0;whiteSpace=wrap;html=1;fontSize=20;strokeWidth=2;" vertex="1" parent="1">
          <mxGeometry x="1120" y="370" width="40" height="60" as="geometry" />
        </mxCell>
        <mxCell id="tc--EFgO68QH__nJiyXp-173" value="1" style="rounded=0;whiteSpace=wrap;html=1;fontSize=20;strokeWidth=2;" vertex="1" parent="1">
          <mxGeometry x="1040" y="370" width="40" height="60" as="geometry" />
        </mxCell>
        <mxCell id="tc--EFgO68QH__nJiyXp-174" value="1" style="rounded=0;whiteSpace=wrap;html=1;fontSize=20;strokeWidth=2;" vertex="1" parent="1">
          <mxGeometry x="1160" y="370" width="40" height="60" as="geometry" />
        </mxCell>
        <mxCell id="tc--EFgO68QH__nJiyXp-175" value="1" style="rounded=0;whiteSpace=wrap;html=1;fontSize=20;strokeWidth=2;" vertex="1" parent="1">
          <mxGeometry x="1240" y="370" width="120" height="60" as="geometry" />
        </mxCell>
        <mxCell id="tc--EFgO68QH__nJiyXp-176" value="0" style="rounded=0;whiteSpace=wrap;html=1;fontSize=20;strokeWidth=2;" vertex="1" parent="1">
          <mxGeometry x="1240" y="370" width="40" height="60" as="geometry" />
        </mxCell>
        <mxCell id="tc--EFgO68QH__nJiyXp-177" value="0" style="rounded=0;whiteSpace=wrap;html=1;fontSize=20;strokeWidth=2;" vertex="1" parent="1">
          <mxGeometry x="1280" y="370" width="40" height="60" as="geometry" />
        </mxCell>
        <mxCell id="tc--EFgO68QH__nJiyXp-178" value="0" style="rounded=0;whiteSpace=wrap;html=1;fontSize=20;strokeWidth=2;" vertex="1" parent="1">
          <mxGeometry x="1200" y="370" width="40" height="60" as="geometry" />
        </mxCell>
        <mxCell id="tc--EFgO68QH__nJiyXp-179" value="0" style="rounded=0;whiteSpace=wrap;html=1;fontSize=20;strokeWidth=2;" vertex="1" parent="1">
          <mxGeometry x="1320" y="370" width="40" height="60" as="geometry" />
        </mxCell>
      </root>
    </mxGraphModel>
  </diagram>
</mxfile>
